<?xml version="1.0" encoding="UTF-8" standalone="no"?>
<!-- Created with Inkscape (http://www.inkscape.org/) -->

<svg
   width="120mm"
   height="45mm"
   viewBox="0 0 120 45"
   version="1.1"
   id="svg5"
   inkscape:version="1.1.1 (3bf5ae0d25, 2021-09-20)"
   sodipodi:docname="paypal.svg"
   xmlns:inkscape="http://www.inkscape.org/namespaces/inkscape"
   xmlns:sodipodi="http://sodipodi.sourceforge.net/DTD/sodipodi-0.dtd"
   xmlns="http://www.w3.org/2000/svg"
   xmlns:svg="http://www.w3.org/2000/svg">
  <sodipodi:namedview
     id="namedview7"
     pagecolor="#ffffff"
     bordercolor="#666666"
     borderopacity="1.0"
     inkscape:pageshadow="2"
     inkscape:pageopacity="0.0"
     inkscape:pagecheckerboard="0"
     inkscape:document-units="mm"
     showgrid="false"
     inkscape:zoom="0.61647026"
     inkscape:cx="193.84552"
     inkscape:cy="42.986664"
     inkscape:window-width="1600"
     inkscape:window-height="877"
     inkscape:window-x="-8"
     inkscape:window-y="-8"
     inkscape:window-maximized="1"
     inkscape:current-layer="layer1" />
  <defs
     id="defs2" />
  <g
     inkscape:label="Layer 1"
     inkscape:groupmode="layer"
     id="layer1">
    <path
       d="m 44.307881,13.291039 h -6.36025 a 0.88349721,0.88157567 0 0 0 -0.873268,0.744235 l -2.572372,16.273888 a 0.53009833,0.5289454 0 0 0 0.524518,0.610606 h 3.036442 a 0.88349721,0.88157567 0 0 0 0.873266,-0.745163 l 0.693778,-4.389318 a 0.88349721,0.88157567 0 0 1 0.872336,-0.745164 h 2.013444 c 4.189638,0 6.607629,-2.022985 7.239098,-6.031834 0.284578,-1.753871 0.0121,-3.131913 -0.810958,-4.097007 -0.903958,-1.059746 -2.507272,-1.620243 -4.636034,-1.620243 z m 0.733766,5.943676 c -0.347819,2.27725 -2.091563,2.27725 -3.777648,2.27725 h -0.959757 l 0.673319,-4.252908 a 0.53009833,0.5289454 0 0 1 0.523588,-0.446355 h 0.439889 c 1.148546,0 2.231992,0 2.79185,0.653294 0.333871,0.389749 0.43617,0.968805 0.308759,1.768719 z m 18.278164,-0.07331 H 60.27407 a 0.53009833,0.5289454 0 0 0 -0.523588,0.446356 l -0.134849,0.850025 -0.212969,-0.308088 c -0.65937,-0.954886 -2.129694,-1.274109 -3.597231,-1.274109 -3.365659,0 -6.24028,2.543578 -6.800138,6.111639 -0.291089,1.779856 0.122767,3.481761 1.134595,4.66864 0.92814,1.091298 2.256175,1.546004 3.836239,1.546004 2.711871,0 4.215676,-1.739951 4.215676,-1.739951 l -0.135778,0.844456 a 0.53009833,0.5289454 0 0 0 0.522659,0.612464 h 2.743491 a 0.88349721,0.88157567 0 0 0 0.873266,-0.745166 l 1.646095,-10.401664 a 0.52823834,0.52708944 0 0 0 -0.521727,-0.610606 z m -4.245438,5.914909 c -0.293879,1.736241 -1.674924,2.901776 -3.436339,2.901776 -0.884427,0 -1.591225,-0.283033 -2.045064,-0.819402 -0.450119,-0.532657 -0.621236,-1.290811 -0.478018,-2.135269 0.274349,-1.721393 1.678645,-2.924975 3.41309,-2.924975 0.864896,0 1.567975,0.286744 2.031112,0.827753 0.464069,0.546577 0.648209,1.309372 0.515219,2.150117 z m 20.466449,-5.914908 h -3.060623 a 0.8872172,0.88528756 0 0 0 -0.731904,0.386966 l -4.221264,6.204436 -1.789313,-5.962235 A 0.8862872,0.88435959 0 0 0 68.889563,19.161406 H 65.88195 a 0.53009833,0.5289454 0 0 0 -0.503122,0.699693 l 3.371236,9.871791 -3.169428,4.464485 a 0.53009833,0.5289454 0 0 0 0.432445,0.835178 h 3.056905 a 0.88256722,0.88064769 0 0 0 0.726323,-0.378615 L 79.976054,19.991943 a 0.53009833,0.5289454 0 0 0 -0.435232,-0.830537 z"
       fill="#253b80"
       id="path2"
       style="stroke-width:0.928983" />
    <path
       d="m 89.674067,13.291039 h -6.361179 a 0.88349721,0.88157567 0 0 0 -0.872336,0.744235 L 79.86818,30.309162 a 0.52916832,0.52801743 0 0 0 0.522652,0.610606 h 3.264294 a 0.61844805,0.61710296 0 0 0 0.610082,-0.521521 l 0.730041,-4.61296 a 0.88349721,0.88157567 0 0 1 0.872335,-0.745164 h 2.012515 c 4.190568,0 6.607629,-2.022985 7.240028,-6.031834 0.28551,-1.753871 0.01127,-3.131913 -0.81189,-4.097007 -0.903028,-1.059746 -2.505405,-1.620243 -4.63417,-1.620243 z m 0.733768,5.943676 c -0.346896,2.27725 -2.090633,2.27725 -3.777644,2.27725 h -0.958833 l 0.674254,-4.252908 a 0.52823834,0.52708944 0 0 1 0.522653,-0.446355 h 0.43989 c 1.147614,0 2.231986,0 2.791844,0.653294 0.333871,0.389749 0.435241,0.968805 0.307836,1.768719 z m 18.277235,-0.07331 h -3.04388 a 0.52730833,0.52616148 0 0 0 -0.52266,0.446356 l -0.13485,0.850025 -0.2139,-0.308088 c -0.65937,-0.954885 -2.12876,-1.274108 -3.59631,-1.274108 -3.365652,0 -6.239339,2.543578 -6.799197,6.111639 -0.29016,1.779856 0.121832,3.481761 1.133666,4.66864 0.929994,1.091298 2.256169,1.546004 3.836238,1.546004 2.711873,0 4.215673,-1.739951 4.215673,-1.739951 l -0.13578,0.844456 a 0.53009833,0.5289454 0 0 0 0.52452,0.612464 h 2.74256 a 0.88349721,0.88157567 0 0 0 0.87234,-0.745165 l 1.64702,-10.401664 a 0.53102833,0.52987338 0 0 0 -0.52544,-0.610608 z m -4.24544,5.91491 c -0.29202,1.736241 -1.67492,2.901776 -3.43634,2.901776 -0.88257,0 -1.591223,-0.283033 -2.045062,-0.819402 -0.450121,-0.532657 -0.619381,-1.290811 -0.478019,-2.135269 0.276202,-1.721393 1.678641,-2.924975 3.413081,-2.924975 0.8649,0 1.56799,0.286744 2.03112,0.827753 0.46593,0.546577 0.65007,1.309372 0.51522,2.150117 z m 7.83616,-11.338919 -2.61051,16.571767 a 0.52916832,0.52801743 0 0 0 0.52266,0.610606 h 2.62446 c 0.43616,0 0.8063,-0.315512 0.87326,-0.745163 l 2.57423,-16.272959 a 0.53009833,0.5289454 0 0 0 -0.52265,-0.611535 h -2.93879 a 0.53102833,0.52987338 0 0 0 -0.52266,0.447284 z"
       fill="#179bd7"
       id="path4"
       style="stroke-width:0.928983" />
    <path
       d="m 8.089144,34.082305 0.4863884,-3.08273 -1.0834459,-0.02505 H 2.3185124 L 5.9138809,8.2270843 a 0.29387908,0.2932399 0 0 1 0.2920193,-0.248697 h 8.7233728 c 2.896011,0 4.894574,0.601327 5.938031,1.7882063 0.489178,0.5567844 0.800727,1.1386244 0.951388,1.7789274 0.158101,0.671853 0.160889,1.47455 0.0065,2.453563 l -0.01122,0.07146 v 0.627311 l 0.489177,0.276536 a 3.4316892,3.4242255 0 0 1 0.990448,0.753515 c 0.418498,0.476051 0.689128,1.08109 0.803516,1.798414 0.118103,0.737741 0.07905,1.615604 -0.114384,2.609464 -0.223201,1.143265 -0.584039,2.138981 -1.071358,2.953743 a 6.0886909,6.0754483 0 0 1 -1.697164,1.855949 c -0.647277,0.45842 -1.416385,0.806409 -2.285932,1.029122 -0.842578,0.219003 -1.803264,0.329432 -2.856952,0.329432 h -0.678924 c -0.485459,0 -0.956967,0.174463 -1.327106,0.487186 a 2.0552935,2.0508234 0 0 0 -0.691918,1.232352 l -0.05115,0.277462 -0.859318,5.433292 -0.03906,0.199514 c -0.01022,0.06311 -0.0279,0.09465 -0.05394,0.115989 a 0.14414955,0.14383603 0 0 1 -0.08928,0.03248 z"
       fill="#253b80"
       id="path6"
       style="stroke-width:0.928983" />
    <path
       d="m 22.766358,14.14292 c -0.02604,0.166107 -0.0558,0.335927 -0.08927,0.510385 -1.150407,5.893566 -5.086155,7.929542 -10.112789,7.929542 h -2.559357 c -0.6147276,0 -1.1327355,0.445427 -1.2285257,1.050467 l -1.3103657,8.292378 -0.3710697,2.35056 a 0.65471793,0.65329396 0 0 0 0.6463484,0.755371 h 4.5393157 c 0.537538,0 0.994167,-0.38975 1.078796,-0.918695 l 0.04464,-0.230137 0.854667,-5.411948 0.05487,-0.296951 c 0.0837,-0.5308 0.541258,-0.92055 1.078796,-0.92055 h 0.678898 c 4.397956,0 7.840805,-1.78171 8.847063,-6.937537 0.420357,-2.153828 0.202739,-3.952242 -0.909538,-5.217072 A 4.3402962,4.3308565 0 0 0 22.766362,14.14292 Z"
       fill="#179bd7"
       id="path8"
       style="stroke-width:0.928983" />
    <path
       d="m 21.562941,13.664085 a 9.0739818,9.0542461 0 0 0 -1.118786,-0.247769 14.214076,14.18316 0 0 0 -2.256173,-0.164252 h -6.837338 a 1.0899565,1.087586 0 0 0 -1.077867,0.920551 l -1.4545151,9.192514 -0.041847,0.268185 a 1.2424761,1.2397738 0 0 1 1.2285261,-1.050467 h 2.559352 c 5.026634,0 8.962382,-2.036904 10.112788,-7.929542 0.0344,-0.174459 0.06323,-0.344278 0.08927,-0.510385 a 6.1324007,6.119063 0 0 0 -0.945808,-0.398102 8.4118234,8.3935284 0 0 0 -0.257609,-0.08074 z"
       fill="#222d65"
       id="path10"
       style="stroke-width:0.928983" />
    <path
       d="m 10.272777,14.172615 a 1.0871666,1.0848021 0 0 1 1.077867,-0.919623 h 6.837338 c 0.810029,0 1.566116,0.0529 2.256173,0.164252 a 9.0739818,9.0542461 0 0 1 1.377327,0.327575 c 0.339447,0.112285 0.654718,0.244985 0.945805,0.398102 0.34224,-2.177957 -0.0028,-3.66086 -1.182956,-5.0036388 -1.301065,-1.4782633 -3.649308,-2.111142 -6.654128,-2.111142 H 6.2068301 c -0.6137981,0 -1.1373865,0.4454277 -1.2322458,1.051395 L 1.3410859,31.060822 a 0.74957763,0.74794735 0 0 0 0.7393469,0.86487 h 5.3856138 l 1.3522153,-8.560563 z"
       fill="#253b80"
       id="path12"
       style="stroke-width:0.928983" />
  </g>
</svg>
