<?xml version="1.0" encoding="UTF-8" standalone="no"?>
<!-- Generator: Adobe Illustrator 22.0.1, SVG Export Plug-In . SVG Version: 6.00 Build 0)  -->

<svg
   version="1.1"
   id="Layer_1"
   x="0px"
   y="0px"
   viewBox="0 0 120 45"
   xml:space="preserve"
   sodipodi:docname="RakBank-01.svg"
   width="120"
   height="45"
   inkscape:version="1.1.1 (3bf5ae0d25, 2021-09-20)"
   xmlns:inkscape="http://www.inkscape.org/namespaces/inkscape"
   xmlns:sodipodi="http://sodipodi.sourceforge.net/DTD/sodipodi-0.dtd"
   xmlns="http://www.w3.org/2000/svg"
   xmlns:svg="http://www.w3.org/2000/svg"><defs
   id="defs95" /><sodipodi:namedview
   id="namedview93"
   pagecolor="#ffffff"
   bordercolor="#666666"
   borderopacity="1.0"
   inkscape:pageshadow="2"
   inkscape:pageopacity="0.0"
   inkscape:pagecheckerboard="0"
   showgrid="false"
   inkscape:zoom="1.4790474"
   inkscape:cx="118.65746"
   inkscape:cy="-14.536384"
   inkscape:window-width="1600"
   inkscape:window-height="877"
   inkscape:window-x="-8"
   inkscape:window-y="-8"
   inkscape:window-maximized="1"
   inkscape:current-layer="Layer_1" />
<style
   type="text/css"
   id="style2">
	.st0{fill:#FFD430;}
	.st1{fill:#EC1C24;}
	.st2{fill-rule:evenodd;clip-rule:evenodd;fill:#EC1C24;}
	.st3{fill:#231F20;}
</style>
<g
   id="g6"
   transform="matrix(0.14279234,0,0,0.1305558,-11.976173,-41.289456)">
	<path
   class="st0"
   d="m 100.2,481.4 c 0.3,-0.3 0.5,-0.6 0.9,-0.8 1.9,-1.4 4.4,-1.1 6,0.6 22.8,24.4 51.5,38.9 82.6,38.9 25,0 48.4,-9.4 68.5,-25.8 -7,18 -16.3,33.3 -27.3,45 -9.3,2.5 -18.9,3.9 -28.8,3.9 -42.5,0.1 -79.9,-24.5 -101.9,-61.8"
   id="path4" />
</g>
<g
   id="g10"
   transform="matrix(0.14279234,0,0,0.1305558,-11.976173,-41.289456)">
	<path
   class="st1"
   d="m 272.4,414.6 v -1.3 -0.1 c 0,0 0,0 0,0.1 0,0 0,0 0,-0.1 0,-2.1 -0.8,-4.1 -2,-5.6 0,0 0,0 0,-0.1 -0.3,-0.4 -0.6,-0.7 -0.9,-1 -0.1,-0.1 -0.2,-0.1 -0.3,-0.2 -0.3,-0.2 -0.6,-0.4 -0.8,-0.6 -0.2,-0.1 -0.5,-0.2 -0.7,-0.3 -0.2,-0.1 -0.4,-0.2 -0.6,-0.3 -0.5,-0.2 -0.9,-0.3 -1.4,-0.4 -0.4,-0.1 -0.9,-0.1 -1.3,-0.1 -0.2,0 -0.3,0 -0.5,0 -0.2,0 -0.3,0 -0.5,0 v 0 c -3,0.5 -5.5,2.9 -6.4,6.2 -12.2,47 -40.3,80.8 -65.9,95 27,-3.6 50.7,-21.3 66.6,-47.4 -7.3,26.8 -21,49.6 -38.7,65.4 -9.7,3.5 -19.9,5.5 -30.5,5.5 -33.8,0 -64,-19.3 -84.2,-49.7 -1.1,-0.1 -2.2,0.1 -3.1,0.8 -0.3,0.2 -0.6,0.5 -0.9,0.8 19.6,33.2 51.4,56.3 88,61 -8.4,3 -17.3,4.6 -26.5,4.6 -11,0 -21.7,-2.3 -31.7,-6.6 1.1,1.2 2.3,2.3 3.5,3.4 0,0 0,0 0,0 0.3,0.2 0.5,0.5 0.8,0.7 0.6,0.5 1.1,1 1.6,1.5 0.3,0.2 0.6,0.5 0.9,0.7 0.6,0.5 1.3,1.1 1.9,1.6 0.1,0.1 0.1,0.1 0.2,0.2 2.4,1.9 4.9,3.7 7.4,5.3 0.2,0.1 0.4,0.3 0.7,0.4 0.6,0.4 1.3,0.7 1.9,1.1 0.3,0.2 0.7,0.4 1.1,0.6 0.6,0.3 1.2,0.6 1.8,0.9 0.4,0.2 0.8,0.4 1.2,0.6 0.6,0.3 1.1,0.5 1.7,0.8 0.4,0.2 0.9,0.4 1.3,0.6 0.6,0.2 1.1,0.5 1.7,0.7 0.5,0.2 1,0.4 1.4,0.6 0.5,0.2 1.1,0.4 1.6,0.6 0.5,0.2 1,0.3 1.5,0.5 0.5,0.2 1,0.3 1.6,0.5 0.5,0.1 1.1,0.3 1.6,0.4 0.5,0.1 1,0.3 1.5,0.4 0.6,0.1 1.2,0.2 1.8,0.4 0.5,0.1 1,0.2 1.4,0.3 0.6,0.1 1.3,0.2 1.9,0.3 0.4,0.1 0.9,0.1 1.3,0.2 0.7,0.1 1.4,0.1 2.1,0.2 0.4,0 0.8,0.1 1.1,0.1 1.1,0.1 2.2,0.1 3.3,0.1 18.8,0 36.3,-9.1 50.9,-24.7 v 0 c 0,0 0.1,-0.1 0.1,-0.1 1,-1.1 2,-2.3 3.1,-3.5 0.2,-0.2 0.4,-0.4 0.6,-0.6 1,-1.2 1.9,-2.3 2.9,-3.6 0.2,-0.3 0.4,-0.5 0.6,-0.8 0.9,-1.2 1.8,-2.4 2.7,-3.7 0.2,-0.3 0.4,-0.6 0.6,-0.9 0.9,-1.2 1.7,-2.5 2.5,-3.8 0.2,-0.3 0.4,-0.7 0.7,-1 0.8,-1.3 1.6,-2.6 2.4,-3.9 0.2,-0.4 0.4,-0.8 0.7,-1.1 0.8,-1.3 1.5,-2.7 2.2,-4 0.2,-0.4 0.4,-0.8 0.7,-1.3 0.7,-1.4 1.4,-2.8 2.1,-4.2 0.2,-0.4 0.4,-0.9 0.6,-1.3 0.7,-1.4 1.3,-2.9 2,-4.3 0.1,-0.3 0.3,-0.6 0.4,-0.9 0,0 0,0 0,0 9.2,-21.3 15.1,-46.7 16.4,-74.1 0,0 0,-0.1 0,-0.1 0,-0.9 0.1,-1.8 0.1,-2.7 0,-0.6 0,-1.2 0.1,-1.9 0,-2.2 0.1,-4.5 0.1,-6.8"
   id="path8" />
</g>
<g
   id="g14"
   transform="matrix(0.14279234,0,0,0.1305558,-11.976173,-41.289456)">
	<path
   class="st1"
   d="m 130,389.1 c 0,0 102.9,6.2 59.4,115.1 0,0.1 160.7,-153.3 -59.4,-115.1"
   id="path12" />
</g>
<g
   id="g18"
   transform="matrix(0.14279234,0,0,0.1305558,-11.976173,-41.289456)">
	<path
   class="st2"
   d="M 319.4,461.7 H 345 c 4.9,0 10.6,1.8 10.6,9.2 0,6.9 -5.2,9.4 -9.6,9.4 h -26.6 z m -20.1,59.8 h 20.1 v -27.1 h 25 c 6.2,0 10.7,2.6 10.7,12.9 0,7.8 0.1,10.7 2,14.2 H 379 c -3.5,-3.7 -3.8,-12.4 -3.8,-16.1 0,-7.3 -1.3,-18.4 -10.1,-19.8 v -0.2 c 8.4,-3 12,-8.8 12,-17.8 0,-7.6 -3.4,-20.1 -23.9,-20.1 h -53.7 v 74 z"
   id="path16" />
</g>
<g
   id="g22"
   transform="matrix(0.14279234,0,0,0.1305558,-11.976173,-41.289456)">
	<path
   class="st2"
   d="m 432.4,492.9 h -23.2 l 11.6,-29.3 z m 11.3,28.6 h 21.7 l -32.5,-73.9 h -24.2 l -32.5,73.9 h 21.6 l 6,-15.2 h 34 z"
   id="path20" />
</g>
<g
   id="g26"
   transform="matrix(0.14279234,0,0,0.1305558,-11.976173,-41.289456)">
	<polygon
   class="st1"
   points="522.6,447.6 488.2,479.4 488.2,447.6 468.1,447.6 468.1,521.5 488.2,521.5 488.2,499.5 499.9,489.5 525.1,521.5 552.2,521.5 515.7,477.3 549.6,447.6 "
   id="polygon24" />
</g>
<g
   id="g30"
   transform="matrix(0.14279234,0,0,0.1305558,-11.976173,-41.289456)">
	<path
   class="st2"
   d="m 582.1,489.8 h 27.5 c 7,0 10.7,3.1 10.7,8.9 0,4.6 -2.4,8.7 -8.6,8.7 H 582.1 Z M 562,521.5 h 52.7 c 22.3,0 26.9,-12.5 26.9,-22.4 0,-8 -4.5,-16.5 -13.1,-17.9 V 481 c 7,-2.2 9.8,-9.1 9.8,-14.8 0,-13.7 -10,-18.6 -20.8,-18.6 H 562 Z M 582.1,461 h 25.1 c 8.3,0 10.4,3.3 10.4,8 0,5.5 -2.9,8 -7.5,8 h -28 z"
   id="path28" />
</g>
<g
   id="g34"
   transform="matrix(0.14279234,0,0,0.1305558,-11.976173,-41.289456)">
	<path
   class="st2"
   d="m 692.3,492.9 h -23.2 l 11.6,-29.3 z m 11.4,28.6 h 21.6 l -32.5,-73.9 h -24.2 l -32.5,73.9 h 21.6 l 6,-15.2 h 34 z"
   id="path32" />
</g>
<g
   id="g38"
   transform="matrix(0.14279234,0,0,0.1305558,-11.976173,-41.289456)">
	<polygon
   class="st1"
   points="790.4,447.6 790.4,499.1 790.2,499.1 751.4,447.6 728.1,447.6 728.1,521.5 747.6,521.5 747.6,470 747.7,470 788,521.5 809.9,521.5 809.9,447.6 "
   id="polygon36" />
</g>
<g
   id="g42"
   transform="matrix(0.14279234,0,0,0.1305558,-11.976173,-41.289456)">
	<polygon
   class="st1"
   points="870.6,447.6 836.2,479.4 836.2,447.6 816.1,447.6 816.1,521.5 836.2,521.5 836.2,499.5 847.9,489.5 873.1,521.5 900.2,521.5 863.7,477.3 897.6,447.6 "
   id="polygon40" />
</g>
<g
   id="g46"
   transform="matrix(0.14279234,0,0,0.1305558,-11.976173,-41.289456)">
	<path
   class="st3"
   d="m 458.9,591.7 c -0.1,0.2 -0.2,0.3 -0.3,0.3 -0.2,-0.1 -0.3,-0.2 -0.4,-0.2 -0.1,0.1 -0.2,0.2 -0.4,0.3 -1,-0.2 -1.8,-0.6 -2.2,-1 l -0.2,-0.8 c 0,-0.2 0.1,-0.5 0.1,-0.9 0.5,-0.2 0.8,-0.6 0.9,-1 l 1.3,-0.4 c 0.1,0.2 0.3,0.4 0.8,0.7 l 0.2,0.5 c 0.1,0 0.3,0.1 0.4,0.1 l 3.5,-1.7 c 0.2,-0.2 0.6,-0.5 1.3,-0.9 0.5,-0.2 0.7,-0.5 0.8,-0.8 l 3.6,-2.9 1.4,-1.5 c 0.3,-0.2 0.6,-0.5 1,-1.1 0.3,-0.2 0.4,-0.4 0.4,-0.6 l 0.6,-1 c 0,-0.1 0,-0.2 0,-0.5 0,-0.3 -0.1,-0.6 -0.3,-0.7 -0.4,-0.4 -1.1,-0.8 -2.3,-1.3 -0.3,-0.1 -0.8,-0.2 -1.7,-0.6 -0.8,-0.3 -1.3,-0.4 -1.8,-0.4 l -3.6,-1.2 -5.4,-1.5 c -0.3,0 -0.7,-0.2 -1.1,-0.5 l -2.1,-0.9 -2.1,-1.6 c -0.8,-1.4 -1.1,-2.3 -1.1,-2.8 -0.2,-0.3 -0.2,-0.5 -0.2,-0.6 l 0.2,-1.7 0.5,-1.6 0.6,-1.1 0.4,-0.6 c 0.2,-0.1 0.3,-0.2 0.4,-0.3 0.1,0 0.1,-0.1 0.1,-0.3 l 4.6,-4.3 c 0.2,-0.1 0.4,-0.3 0.5,-0.6 0.1,-0.1 0.6,-0.4 1.3,-1.2 0,-0.1 0.2,-0.3 0.6,-0.5 l 0.6,-0.3 1.7,-1.3 c 0,-0.1 0.1,-0.2 0.2,-0.3 l 0.9,-0.3 0.9,-0.6 c 0.1,-0.1 0.2,-0.1 0.2,-0.3 0.5,-0.2 1.3,-0.5 2.2,-1.1 2.1,-0.9 4.1,-1.5 5.9,-2 h 2 c 0.3,-0.1 0.7,-0.1 1.2,0 0.6,0.1 1.1,0.1 1.4,0 0.8,0.1 1.6,0.8 2.4,2 l -0.7,2.1 h -0.4 c -0.1,0.2 -0.3,0.6 -0.8,1 l -0.2,0.1 -0.6,0.2 -0.5,-0.4 c -0.1,0 -0.1,-0.1 -0.1,-0.1 0,-0.7 -0.3,-1.2 -0.9,-1.3 -0.2,0 -0.4,0 -0.5,-0.2 -0.3,-0.2 -0.5,-0.3 -0.6,-0.4 -0.5,-0.2 -1,-0.3 -1.5,-0.3 -0.3,0 -0.6,0 -0.9,0.1 0,0 -0.8,0.2 -2.4,0.6 -0.3,0.2 -0.8,0.5 -1.5,0.9 -0.7,0.1 -1.4,0.5 -2,1.2 l -1.3,0.4 -1.5,1.2 -3.6,2.5 c 0,0.1 -0.1,0.2 -0.1,0.3 -1.6,1.3 -2.7,2.6 -3.5,4 l -0.6,0.5 c -0.1,0.2 -0.1,0.4 -0.1,0.5 l -0.6,0.7 -0.3,1.8 1.4,2 c 0.1,0.1 0.2,0.2 0.3,0.3 0.2,0.5 0.5,0.8 0.7,0.9 l 0.6,0.4 3.2,0.9 c 0.3,0.3 0.8,0.5 1.5,0.6 l 1.5,0.2 3.3,0.9 3.6,1.3 1.1,0.1 1.1,0.4 3.6,1.8 c 0.2,0 0.5,0.5 1,1.6 0,0.3 0,0.7 -0.2,1.1 0,0.6 -0.6,1.5 -1.8,2.8 -0.2,0.5 -0.5,0.8 -0.9,1.1 -1.2,0.6 -2.3,1.4 -3.3,2.4 -0.6,0.3 -1.6,1.1 -2.8,2.3 -1.2,1 -2.1,1.7 -3,2.1 l -2.4,1.4 c -0.5,0.3 -0.8,0.5 -1,0.6 l -1.2,0.4 c -0.5,0.5 -0.8,0.6 -1,0.9"
   id="path44" />
</g>
<g
   id="g50"
   transform="matrix(0.14279234,0,0,0.1305558,-11.976173,-41.289456)">
	<path
   class="st3"
   d="m 480.5,580.1 v 0 l 2.8,-5.8 c 0.1,-0.1 0.4,-0.6 0.9,-1.6 l 0.4,-1 c 0,-0.1 0.1,-0.2 0.1,-0.4 l 0.1,-0.2 v 0 c 0.6,-0.8 0.8,-1.5 0.7,-2.1 0.1,-0.1 0.1,-0.3 0.2,-0.4 0,0 0.1,-0.1 0.1,-0.2 l 0.2,-0.7 c 0,0 0,-0.1 0,-0.2 v -0.2 c 0,-0.3 0.1,-0.4 0.2,-0.4 l 1.1,-0.9 c 0.1,0 0.4,0.1 1,0.2 l 0.5,-0.2 0.9,0.4 0.6,1.8 0.2,0.2 -0.3,0.5 -0.4,0.4 -0.8,1.7 -1.2,1.8 c -0.2,0 -0.3,0.1 -0.4,0.2 -0.2,0.8 -0.4,1.2 -0.6,1.4 l -0.7,1.1 c -0.3,0.4 -0.5,0.8 -0.6,1.1 -1.8,3.4 -2.7,5.6 -2.8,6.5 l -0.3,1.5 -1.1,3.3 -0.3,2.5 -0.6,0.8 -0.6,0.1 -1.1,0.4 c -0.3,-0.1 -0.6,-0.3 -0.6,-0.6 l -0.6,-0.5 c -0.1,-0.1 -0.1,-0.3 -0.2,-0.5 0.2,-1 0.3,-1.7 0.4,-2.2 l 1.1,-3.4 c 0,-0.2 0.2,-0.5 0.5,-1.1 0,-0.1 0.1,-0.2 0.2,-0.4 0,0 0,-0.1 0.1,-0.2 l 0.8,-2.5 c 0,0 0,-0.1 0.1,-0.2 m 12.2,-24.7 -0.2,0.6 -1.8,1.5 c -0.1,0.1 -0.2,0.3 -0.3,0.4 -0.3,0.1 -0.4,0.1 -0.6,0.1 l -2.2,-1.6 -1.1,-1.6 v -1.2 l 1,-0.6 0.3,-0.5 1.2,-0.2 2.3,0.8 1.1,2.1 c 0.1,0.1 0.2,0.2 0.3,0.2"
   id="path48" />
</g>
<g
   id="g54"
   transform="matrix(0.14279234,0,0,0.1305558,-11.976173,-41.289456)">
	<path
   class="st3"
   d="m 522.4,596 v 0 c -0.1,-0.1 -0.2,-0.1 -0.3,-0.2 l -1.6,-0.4 -0.3,-0.5 -0.3,-2.1 0.4,-3.9 -0.1,-0.5 0.4,-0.7 v -0.4 l 0.2,-1.1 -0.2,-0.5 0.2,-0.5 V 582 l 0.5,-1 -0.3,-3.6 c 0.1,-0.4 0.1,-0.7 0,-1 -0.2,-1.1 -0.5,-1.8 -0.9,-2.2 l -2.8,2 v 0.2 c -0.5,0.3 -1,0.7 -1.4,1.2 -0.1,0.1 -0.4,0.7 -1,1.6 l -3.1,2.5 c -0.1,0.1 -0.2,0.2 -0.2,0.2 -0.9,0.8 -1.5,1.3 -1.6,1.5 -1.6,1.7 -2.7,3 -3.3,4.1 -1,0.8 -1.8,1.4 -2.2,1.8 l -0.5,0.2 -1.9,-0.6 -0.6,-1.5 1.2,-2.7 0.8,-4 c -0.1,-0.1 -0.1,-0.1 0,-0.2 l 0.1,-0.2 c 0,-0.1 0,-0.1 0,-0.2 0.2,-0.5 0.3,-0.9 0.3,-1.1 0,-0.1 0.1,-0.4 0.1,-1 0.1,-0.8 0.2,-1.1 0.2,-1 0.3,-1 0.4,-2 0.4,-3 -0.1,-0.2 -0.3,-0.2 -0.5,-0.2 l -1,0.8 c -0.1,0.2 -0.1,0.4 -0.3,0.5 h -0.1 c -0.2,0.1 -0.3,0.2 -0.4,0.3 l -0.2,0.1 c 0,0 -0.1,0.1 -0.1,0.1 l -3.5,3.8 -0.7,1.1 c 0,0.2 -0.2,0.2 -0.3,0.2 l -0.9,0.8 -0.3,0.6 -1.2,1.2 c -0.1,0.1 -0.2,0.4 -0.3,0.6 l -2.9,3.7 c -0.8,0.2 -1.4,0.8 -1.7,1.8 l -0.9,0.3 -1.5,-0.8 c -0.2,-0.4 -0.3,-0.7 -0.5,-1 0,-0.7 0.2,-1.2 0.8,-1.5 0.1,-0.2 0.2,-0.5 0.3,-0.8 l 2.6,-6.1 2.1,-5.6 c 0.9,-2.4 1.3,-4.2 1.3,-5.4 l 0.4,-0.4 c 0.2,0 0.4,-0.1 0.7,-0.1 0.6,0 1.4,0.1 2.6,0.4 0.2,0.1 0.4,0.2 0.5,0.4 l -0.2,1.8 c -0.5,0 -0.7,0.3 -0.8,0.8 l -2,4.1 c 0,0.1 0,0.2 -0.1,0.4 l -0.1,0.2 c 0,0.1 -0.1,0.1 0,0.2 l -0.3,0.8 -0.2,0.8 -0.4,0.8 v 1.2 l 1.8,-1.9 1.4,-1.4 c 0.2,-0.1 0.3,-0.2 0.4,-0.3 l 4.5,-4.7 c 0.6,-0.5 1.3,-1.3 2.2,-2.4 0.3,-0.3 0.5,-0.6 0.7,-0.8 0.1,-0.1 0.2,-0.2 0.5,-0.5 l 1.6,-0.4 1.5,0.7 c 0,0.5 0.1,0.8 0.1,1.2 0,0.4 -0.1,0.6 -0.2,0.8 0.1,0.2 0.2,0.3 0.3,0.5 l -1.1,5.2 c -0.5,1.2 -0.8,2.2 -0.9,3 l -0.4,3 h 0.6 l 4.5,-4.5 c 0,-0.1 0.2,-0.2 0.2,-0.2 l 0.1,0.1 0.5,-0.5 5.5,-5.6 0.1,0.1 2.2,-1.9 2.1,-0.4 0.5,0.4 c 0,0.1 0.2,0.2 0.4,0.2 l 0.9,1.5 0.5,5.2 -0.3,0.8 c 0.1,0 0.2,0.1 0.3,0.1 l -0.8,8.8 -0.4,0.4 -0.2,7.5 -0.4,0.7 0.3,0.5 -0.2,0.4 z"
   id="path52" />
</g>
<g
   id="g58"
   transform="matrix(0.14279234,0,0,0.1305558,-11.976173,-41.289456)">
	<path
   class="st3"
   d="m 530.1,577.8 v 0 l 0.1,-0.1 c 0.1,-0.2 0.1,-0.4 0.1,-0.7 0.2,-0.8 0.6,-1.7 1.2,-2.9 h 1.2 l 0.2,-0.2 c 0.4,0 0.6,-0.1 0.7,-0.3 l 2.2,-2.8 c 0.1,-0.4 0.4,-0.8 0.9,-1.3 0.7,-0.6 1.2,-0.9 1.3,-0.9 0.2,-0.2 0.3,-0.3 0.4,-0.4 0.7,-0.8 1.2,-1.2 1.6,-1.4 l 1.3,-0.5 c 0.2,0 0.4,0 0.6,0 0.3,-0.1 0.5,-0.2 0.5,-0.2 0.3,0 0.5,0.1 0.8,0.1 h 1.5 c 0.1,0 0.2,-0.1 0.2,-0.1 l 1.7,0.7 1.2,0.7 c 0.4,0.3 0.6,0.7 0.6,1.1 v 0.5 l 0.3,0.8 -0.4,2.9 c 0.1,0.7 -0.3,2 -1.3,3.9 -0.1,0 -0.3,0.3 -0.5,0.7 l -0.8,1 -1.6,2 -3.4,3.8 -0.4,0.4 -1.9,2 -0.7,0.5 c -1.4,1.5 -2.4,2.3 -3,2.5 l -1.6,1.7 c -0.1,0 -0.3,0.2 -0.6,0.4 l -0.4,0.3 -0.1,0.1 -0.1,0.1 v 0 h -0.1 c 0,0.1 0,0.2 -0.1,0.3 h -0.2 c 0,0.1 -0.1,0.1 -0.2,0.2 -0.2,0.1 -0.5,0.2 -0.7,0.2 -0.3,0 -0.5,0 -0.9,-0.2 -0.1,0 -0.2,0.1 -0.2,0.2 0,-0.3 -0.1,0.3 -0.4,1.7 v 0 l -0.3,0.8 -0.7,3.9 c 0,0.2 -0.1,0.3 -0.2,0.5 0,0 -0.1,0.1 -0.1,0.1 l 0.1,0.4 -0.5,2.5 -0.4,3.3 -0.4,1.9 c 0.1,0.3 0,0.6 -0.1,0.9 l 0.2,1.1 c 0,0.1 0,0.3 0,0.4 0,0.1 -0.2,0.2 -0.3,0.1 l -0.6,0.9 -0.6,0.5 -2.1,-0.3 -0.1,-0.9 v -0.8 l 0.5,-1.6 c 0.2,-0.6 0.3,-1.1 0.3,-1.5 l 0.3,-1.5 0.2,-0.9 0.1,-0.9 c 0,-0.1 0.1,-0.3 0.1,-0.8 0,-0.1 0,-0.1 0,-0.1 l 1,-6.8 0.6,-3 v -0.6 l 0.3,-1.4 0.4,-1.3 c 0.2,-0.3 0.4,-0.9 0.5,-1.6 v -0.2 c 0,0 0,0 0,0 l 1,-3.4 c 0.4,-0.5 0.7,-1.5 1.1,-3.3 l 0.1,-0.3 0.1,-0.3 0.5,-2 z m 15.5,-5 c 0.2,-0.5 0.3,-1.3 0.3,-2.6 v -0.7 l -0.1,-0.5 c -0.4,-0.4 -0.7,-0.7 -0.9,-0.8 -0.5,-0.1 -0.8,-0.2 -1,-0.2 l -1.6,0.4 -1.7,1.3 -0.4,0.7 c -0.2,0.1 -0.3,0.3 -0.5,0.5 l -1.1,1.1 -0.4,0.6 c -0.2,0.1 -0.4,0.3 -0.7,0.6 l -1,2.1 c -0.2,0.3 -0.5,0.7 -0.9,1 l -1.9,4.4 -0.3,0.3 -1.4,4 0.2,0.5 c 0,0.2 0,0.2 0.1,0.3 h 1.1 l 1,0.8 1.2,-1.2 c 0.4,-0.5 1.1,-1.1 2,-1.8 l 0.3,-0.3 5.1,-6.1 c 0.3,-0.5 0.6,-1 1,-1.4 0.1,-0.1 0.1,-0.3 0.1,-0.4 l 1,-2.4 z"
   id="path56" />
</g>
<g
   id="g62"
   transform="matrix(0.14279234,0,0,0.1305558,-11.976173,-41.289456)">
	<path
   class="st3"
   d="m 548.5,581 0.4,-2 c 0,-0.1 0.1,-0.2 0.2,-0.4 0.1,-0.2 0.1,-0.3 0.1,-0.3 l 0.4,-1.5 c 0.4,-1 0.6,-1.6 0.6,-1.7 0.3,-1.3 0.5,-2.1 0.6,-2.2 0,-2.7 0.3,-4.1 0.9,-4.1 0.1,0 0.2,0 0.3,0 l 1.9,-7.6 c 0,0 0,-0.2 0.2,-0.6 l 0.8,-2.8 0.6,-1.5 1,-3.5 c 0.4,-0.6 0.7,-1.2 0.8,-2 0.1,-0.3 0.4,-1.2 0.8,-2.8 0.3,-1.2 0.7,-1.9 1.2,-2.4 0.6,-0.1 1,-0.2 1.4,-0.3 0.6,0.4 1.1,0.7 1.4,0.8 l -1.3,3.2 -1.4,6.1 -0.8,2 c -0.2,0.5 -0.3,0.8 -0.4,1 -0.4,1.3 -0.6,2 -0.6,2.2 -0.6,2.6 -1.1,4.4 -1.3,5.4 l -0.3,1.3 -0.8,2.4 -0.4,1.2 -0.4,1.4 -0.3,0.9 -0.5,1.8 -0.4,1 c -0.2,0.4 -0.3,0.7 -0.3,1 0,0.1 0,0.2 0.1,0.3 -0.2,0.4 -0.3,0.7 -0.4,1 l -0.3,3.3 c -0.2,0.8 -0.2,1.3 -0.2,1.5 v 0.5 l -0.1,1.5 c 0,0.7 0,1.1 0.2,1.4 0.1,0.4 0.1,0.6 0.1,0.9 0,0.1 0,0.2 0,0.3 0.1,0.5 0.1,0.9 0.1,1.2 0,0.1 0,0.1 0.1,0.3 0,0.2 0.1,0.5 -0.1,0.8 -0.2,0.6 -0.6,1.1 -1.1,1.2 l -1.1,2.3 -0.8,0.6 c 0,0.1 -0.2,0.1 -0.5,0.1 -0.2,0 -0.4,0 -0.4,-0.1 l -0.6,-0.5 c -0.3,-0.4 -0.6,-0.8 -0.8,-1.1 l -0.1,-1.1 c 0.1,-0.3 0.2,-0.5 0.4,-0.7 0.2,-0.4 0.3,-0.7 0.4,-1.1 0,-0.4 0,-0.8 -0.2,-1.3 l 0.1,-0.5 0.1,-0.9 c 0,0 0.1,-0.2 0.3,-0.7 0.2,-0.4 0.2,-0.8 0.2,-0.9 -0.1,-0.3 0,-0.8 0.4,-1.4 0,-0.2 0,-0.2 -0.1,-0.3 v -0.8 c -0.1,-0.6 -0.1,-1.2 -0.1,-1.8"
   id="path60" />
</g>
<g
   id="g66"
   transform="matrix(0.14279234,0,0,0.1305558,-11.976173,-41.289456)">
	<path
   class="st3"
   d="m 558,607.1 c 0.4,-0.8 0.9,-2.1 1.5,-3.7 l 0.2,-0.2 0.5,-1.4 0.4,-0.5 0.1,-0.2 c 0,-0.1 0.2,-0.3 0.4,-0.5 0.8,-1.5 1.6,-2.8 2.4,-3.9 0.2,-0.3 0.4,-0.5 0.6,-0.7 l 0.3,-0.4 0.2,-0.3 1.1,-1.7 c 0.2,-0.1 0.5,-0.3 0.8,-0.6 0.1,-0.3 0.5,-0.6 1.1,-1.1 0.6,-0.4 0.9,-0.8 1.1,-1 0.3,-0.3 0.8,-0.7 1.4,-1.2 0.5,-1.2 0.7,-2.3 0.6,-3.5 -0.1,-0.1 -0.1,-0.1 -0.2,-0.1 -0.2,0 -0.4,0.2 -0.7,0.4 l -0.8,0.3 c -0.2,0.1 -0.4,0.3 -0.7,0.5 -1.2,1 -3.2,2 -6.1,3.1 H 561 c -0.7,-0.1 -1.7,-0.8 -2.9,-2.1 l -1.1,-1.8 c 0,-0.1 -0.1,-0.3 -0.2,-0.6 l -0.1,-0.1 -0.3,-1.9 c -0.1,-0.5 0,-1 0.2,-1.4 0.2,-0.8 0.4,-2 0.4,-3.5 l 0.4,-1.6 0.4,-1 1.6,-4.3 0.5,-1 0.2,-0.8 0.1,-1.2 0.8,-1.7 c 0.2,-0.1 0.5,-0.2 0.8,-0.4 0.5,-0.2 0.9,-0.2 1,-0.2 0.2,0 0.5,0.3 0.8,0.6 0.1,0.2 0.1,0.4 0.2,0.7 l -0.1,0.4 -0.9,1.1 c -0.1,0.3 -0.3,0.9 -0.6,1.8 l -1.9,5.7 -0.9,3.5 c 0,0.9 0.1,2.4 0.2,4.2 0,0.1 0.6,0.8 1.7,1.9 1,0.4 1.6,0.6 1.7,0.5 0.3,0 0.6,-0.2 1.1,-0.5 l 0.8,-0.3 c 0.3,-0.1 0.5,-0.3 0.9,-0.5 1.2,-0.5 1.8,-0.8 1.9,-0.9 0.8,-0.3 1.3,-0.8 1.5,-1.2 l 0.1,-0.2 c 0.7,-0.6 1.2,-1.2 1.6,-1.8 l 0.4,-1 c 0,0 0,-0.1 0.1,-0.2 0.1,-0.1 0.1,-0.2 0.1,-0.2 l 0.1,-0.4 1.3,-7.3 0.3,-1.3 0.1,-0.7 0.2,-0.8 c 0.2,-0.1 0.2,-0.3 0.2,-0.5 0,-0.1 0,-0.2 0,-0.4 l 0.3,-0.8 c 0.2,-0.2 0.4,-0.5 0.6,-1 l 1.2,-0.6 1.4,0.7 0.4,0.5 0.1,0.6 c 0,0.4 -0.2,1.2 -0.5,2.3 -0.3,1 -0.4,1.8 -0.4,2.3 -0.2,1.4 -0.6,3.1 -1,5.1 -0.2,0.4 -0.3,0.7 -0.3,1 -0.2,1.2 -0.5,2.5 -1,4 l -0.3,1 -0.1,0.9 -0.3,0.6 c 0.1,0.1 0.1,0.3 0,0.6 -0.1,0.3 0,0.5 0.1,0.6 l 0.9,-0.4 c 0.7,-0.3 1.4,-0.7 2.1,-1.1 l 1.6,-0.4 c 0.9,-0.2 1.7,-0.2 2.2,0 l 0.7,0.2 c 0.1,0 0.2,0.2 0.5,0.3 0.1,0.1 0.3,0.2 0.3,0.3 0,0.3 0,0.4 -0.1,0.5 -0.4,0 -1.2,0.2 -2.3,0.5 -1.1,0.5 -2.8,1.1 -5.1,1.7 -0.5,0.4 -1.1,0.9 -1.9,1.7 l -0.5,2.4 c 0,0.1 0,0.4 -0.1,0.6 -0.1,0.3 -0.2,0.5 -0.2,0.7 l -0.1,0.9 -0.2,1.1 -0.2,0.7 -0.8,3.5 -0.7,1.8 -0.2,0.8 c 0,0 0,0.1 -0.1,0.3 -0.1,0.2 -0.2,0.3 -0.2,0.3 l -0.5,2.5 -0.2,0.9 c -0.4,0.7 -0.7,1.5 -0.9,2.3 l -0.7,1.8 -0.3,1.2 -0.4,0.9 -0.4,0.7 c -0.2,0.4 -0.3,0.6 -0.2,0.7 l -0.4,0.4 c 0,0.2 -0.3,0.6 -0.7,1.4 0,0 -0.1,0.2 -0.3,0.5 -0.2,0.3 -0.2,0.4 -0.2,0.4 l -0.5,1 c 0,0.1 -0.1,0.4 -0.4,0.8 l -0.8,1.5 -0.6,0.7 c -0.1,0.2 -0.4,0.6 -0.8,1 -0.2,0.1 -0.4,0.2 -0.7,0.4 l -0.8,0.4 -0.9,0.2 c 0,0 -0.2,0.1 -0.7,0.1 l -0.7,-0.2 -0.4,-0.3 c -0.2,-0.2 -0.5,-0.3 -0.7,-0.4 l -0.9,-1.7 -0.3,-0.7 -0.1,-0.7 0.1,-3.6 c -0.1,-0.1 -0.1,-0.2 -0.1,-0.3 0,-0.2 0.1,-0.4 0.2,-0.7 l 0.3,-1.2 c 0.1,-0.4 0.3,-1.3 0.6,-2.5 0.2,-0.5 0.5,-1.2 1,-2.2 0.4,-0.3 0.5,-0.8 0.9,-1.4 m 1.6,2.3 -0.3,1.4 c -0.3,0.2 -0.4,0.6 -0.3,1.1 l -0.7,2.2 c -0.1,1 -0.2,1.8 -0.2,2.4 0,0.1 0,0.4 0.1,0.7 0,0.3 0.1,0.6 0.1,0.7 v 0.8 l 0.1,0.3 0.3,0.4 c 0.1,0.1 0.4,0.3 0.8,0.7 l 1.1,-0.6 0.2,-0.4 c 0,-0.1 0.2,-0.3 0.4,-0.7 l 0.3,-0.3 1.3,-2.3 0.5,-1.4 1.2,-2.2 c 0.3,-0.8 0.6,-1.5 0.9,-2.3 l 0.4,-1.7 1,-3.2 c 0,-0.3 0.1,-0.6 0.1,-0.6 v 0 l 0.4,-1.5 0.2,-0.4 0.1,-0.8 0.3,-0.8 0.4,-1.6 c 0,-0.1 0,-0.3 0.1,-0.6 l 0.7,-2.6 0.5,-1.5 0.1,-1 -1.3,0.4 -1.2,1.4 -2.8,4.3 c 0,0.1 -0.2,0.2 -0.4,0.3 l -0.2,0.6 c -0.1,0.1 -0.2,0.2 -0.2,0.3 l -0.3,0.8 -0.4,0.9 c 0,0.1 -0.2,0.3 -0.3,0.7 l -0.5,0.9 -0.3,0.6 c 0,0.3 -0.2,1 -0.6,2.1 -0.2,0.7 -0.6,1.3 -0.9,1.6 l -0.2,0.4 z"
   id="path64" />
</g>
<g
   id="g70"
   transform="matrix(0.14279234,0,0,0.1305558,-11.976173,-41.289456)">
	<path
   class="st3"
   d="m 611.6,584.3 c -0.5,0.3 -0.9,0.4 -1.2,0.5 -0.8,-0.2 -1.3,-0.7 -1.4,-1.3 0.2,-0.2 0.2,-0.4 0.3,-0.4 0,-0.2 -0.1,-0.6 -0.3,-1.2 -0.2,-0.7 -0.3,-1.1 -0.2,-1.3 -0.3,-1 -0.4,-1.8 -0.5,-2.4 0,0.1 -0.2,-0.7 -0.6,-2.3 0.2,-0.2 0.2,-0.3 0.2,-0.3 l -0.5,-0.2 -1.5,-4 -0.8,-2.7 c -0.4,-0.4 -0.6,-1.2 -0.6,-2.5 l -0.6,-2.2 c -0.2,-0.4 -0.3,-1.3 -0.3,-2.8 v -2.5 c 0.2,-0.3 0.3,-0.7 0.3,-0.9 0,0 0,-0.2 0.1,-0.4 0.1,-0.2 0.1,-0.4 0.1,-0.4 l 0.1,-2.2 c 0.3,-0.6 0.6,-1.1 0.9,-1.3 0.3,-0.1 0.4,-0.3 0.4,-0.5 0.4,-0.5 0.7,-0.8 1,-0.9 l 0.9,-1 c 0.3,0 0.5,0 0.5,-0.1 l 1.8,-1.1 c 0.3,-0.1 1,-0.3 2.1,-0.7 0.9,-0.3 1.7,-0.5 2.3,-0.5 0.2,-0.2 0.9,-0.4 2,-0.7 1.2,-0.2 1.8,-0.4 1.8,-0.4 0.7,0 1.1,-0.1 1.4,-0.3 0.6,0.1 1.2,0.2 1.6,0.2 0.3,0 0.5,0 0.7,-0.1 h 2 c 0.7,0 1.4,0.1 1.9,0.3 0.3,0.5 0.7,0.7 1.1,0.7 l 1.4,1.8 c 0,0.3 0.1,0.5 0.1,0.8 0,0.7 -0.5,2.2 -1.6,4.5 -0.3,0.1 -0.5,0.2 -0.5,0.4 l -0.2,0.6 c -0.3,0.2 -0.5,0.3 -0.5,0.4 l -3.3,3.4 c -0.1,0.3 -0.4,0.6 -0.8,1 -0.3,0.5 -0.8,1 -1.4,1.5 -1.3,1 -2.1,1.8 -2.6,2.4 -0.2,0.1 -0.3,0.2 -0.4,0.2 l -0.5,0.9 c -0.6,0.2 -1,0.5 -1.3,0.9 0,0.2 0.1,0.4 0,0.5 1.4,0.1 2.6,0.2 3.7,0.2 0.6,0 1.3,-0.1 1.9,-0.1 0.2,-0.1 0.5,-0.1 0.8,-0.1 0.2,0 0.5,0 0.8,0.1 0.3,0 0.6,0 0.8,0 0.3,0 0.6,0 0.9,-0.1 0.8,0.3 2,0.4 3.7,0.4 1.7,0.1 2.9,0.3 3.8,0.5 0.1,0 0.4,0.1 0.9,0.2 0.4,0.1 0.7,0.1 0.9,0.1 0.3,0.3 0.6,0.6 0.8,0.7 0.3,0.6 0.6,1 0.7,1.3 l 0.4,2 v 0.6 c -0.1,1.1 -0.4,2.1 -1.1,3 l -1.9,2.7 c -1,0.6 -1.7,1.1 -2,1.6 l -2.4,1.7 c -0.7,0.3 -1.3,0.6 -1.6,0.8 -0.3,0.3 -1,0.8 -2,1.3 -1,0.6 -1.7,1 -2,1.5 -1.7,0.5 -2.8,0.9 -3.3,1.3 l -1,0.4 c -0.2,0.1 -0.4,0.1 -0.7,0.1 -0.1,0 -0.1,0.1 -0.2,0.1 -0.1,0 -0.1,0 -0.1,0 l -0.5,0.3 -1.7,0.6 c -0.1,0 -0.2,0 -0.4,0 l -0.6,0.1 c -0.7,0.6 -1.6,0.9 -2.6,1.1 l -3,0.5 c -0.1,0.1 -0.2,0.2 -0.3,0.3 l -5,1 -0.5,-0.3 c -0.6,-0.2 -1.1,-0.4 -1.4,-0.4 l -0.3,-1.9 c 0.4,-0.4 0.6,-0.8 0.9,-1.1 0.4,-0.2 0.8,-0.3 1.1,-0.3 0.2,0 0.4,0 0.5,0.1 0.5,0.1 0.8,0.2 1,0.3 0.2,0 0.3,0 0.3,-0.1 1.4,0 2.2,-0.1 2.6,-0.2 0.7,-0.3 1.3,-0.6 1.7,-0.7 l 0.7,0.2 0.6,-0.5 5.6,-1.5 c 0.5,-0.3 0.8,-0.5 1,-0.7 1.3,-0.4 2.2,-0.8 2.8,-1 l 2.7,-1.2 c 1,-0.5 1.8,-1 2.5,-1.6 1.2,-0.6 2,-1.1 2.3,-1.4 l 2.4,-2.2 c 0.3,-0.1 0.4,-0.2 0.5,-0.2 0.1,-0.2 0.1,-0.3 0.1,-0.5 0.6,-0.6 0.9,-0.9 1.1,-1.1 0,-0.3 0.2,-0.7 0.5,-1.2 0.2,-0.4 0.3,-0.8 0.3,-1.2 l -0.8,-1 c -0.5,-0.5 -1.5,-0.7 -2.8,-0.7 -0.3,-0.2 -1.1,-0.3 -2.5,-0.4 -1.5,-0.1 -2.4,-0.2 -2.6,-0.3 l -2.3,-0.2 c -1.1,0.3 -2.3,0.5 -3.5,0.5 -0.8,0 -1.5,-0.1 -2.3,-0.2 -0.2,0.1 -0.6,0.2 -1.3,0.3 -0.5,0 -0.9,0.2 -1,0.5 0.1,0.1 0.1,0.2 0.1,0.2 -0.2,0.4 -0.3,1.6 -0.3,3.8 l 0.1,0.1 0.1,0.1 c -0.1,0.3 -0.3,0.5 -0.3,0.6 0,0.3 0.3,0.7 0.8,1.2 l 0.1,0.5 c -0.2,0.2 -0.3,0.3 -0.4,0.3 l 0.4,0.9 c 0.1,0 0.2,0 0.3,0.1 l 1,2.3 0.2,1.2 c -0.3,0.1 -0.5,0.4 -0.5,0.6 l -0.5,0.2 c -0.1,0.2 -0.2,0.3 -0.3,0.4 l -1,0.4 c -0.5,-0.2 -0.7,-0.3 -0.8,-0.3 m 5.3,-23.2 c 0.2,-0.2 0.6,-0.4 1.1,-0.6 0.1,-0.2 0.5,-0.6 1.1,-1.2 0.5,-0.5 0.8,-0.9 0.9,-1.3 0,0 0.2,-0.3 0.7,-0.7 0.5,-0.4 0.8,-0.6 0.8,-0.7 l 2.5,-3.3 0.1,-2 c -0.4,-0.5 -1,-0.8 -1.7,-0.9 l -2.3,-0.1 c -4.3,0.7 -7,1.3 -8.1,1.8 l -1.7,1.5 -1.8,0.7 -0.5,0.7 c 0,0.2 0,0.3 -0.1,0.4 -0.6,0.8 -1,1.2 -1,1.3 l 0.1,0.7 -0.7,2.6 0.2,0.4 -0.2,0.8 c 0,0.2 0.1,0.4 0.2,0.6 0.2,0.1 0.2,0.3 0.3,0.4 -0.1,0.8 -0.2,1.1 -0.2,0.9 l 0.4,1.9 c 0,0.1 0.1,0.2 0.3,0.4 v 0.7 c 0,0.3 0.1,0.6 0.3,0.8 l 0.5,1.5 c 0.1,0.1 0.3,0.2 0.3,0.3 l -0.1,0.7 c 0.1,0.1 0.2,0.2 0.2,0.3 l 0.1,0.4 0.3,-0.3 0.9,-5.3 c 0.1,-0.1 0.2,-0.2 0.2,-0.3 l 0.6,-5.2 1.2,-2 1.5,-0.4 c 1.2,0.2 1.9,0.5 2.2,0.9 0.2,0.1 0.4,0.2 0.4,0.3 0.3,0.2 0.5,0.4 0.5,0.5 -0.2,0.2 -0.3,0.4 -0.3,0.6 l -1.2,3.9 1.6,-0.9 z"
   id="path68" />
</g>
<g
   id="g74"
   transform="matrix(0.14279234,0,0,0.1305558,-11.976173,-41.289456)">
	<path
   class="st3"
   d="m 654.5,584.4 -0.2,0.5 c -0.1,0.2 -0.2,0.4 -0.4,0.5 l -0.6,0.5 -0.5,0.2 c -0.6,0.4 -1.7,1.2 -3.3,2.4 l -1.5,0.7 -2.2,0.8 c -0.1,0.1 -0.6,0.4 -1.5,0.7 -0.2,0 -0.7,0.2 -1.5,0.4 H 640 l -2.5,-1 c -0.1,-0.2 -0.2,-0.3 -0.2,-0.3 l -0.4,-0.2 -1.3,-1.2 c -0.4,-0.6 -0.6,-1 -0.6,-1.2 0,-0.1 -0.1,-0.3 -0.4,-0.8 l -0.4,-2.2 0.3,-3.4 v -0.5 l 0.3,-1 0.5,-1.7 2.1,-4 0.7,-1.6 c 0.2,-0.3 0.5,-0.6 0.8,-0.8 l 0.8,-0.8 c 0.2,-0.1 0.5,-0.4 0.9,-0.9 0.1,-0.2 0.3,-0.5 0.8,-1 0.1,0 0.2,-0.1 0.5,-0.4 0,0 0,-0.1 0.1,-0.2 l 2.1,-1.2 1.6,-0.8 c 0.1,0 0.3,0 0.5,-0.2 1,-0.2 1.8,-0.4 2.4,-0.5 1.8,0 3.1,0.4 3.8,1.4 0,0.1 0.2,0.5 0.6,1.1 l -0.2,1.4 -0.2,0.7 -0.8,1.1 -0.7,1.1 -0.8,0.8 c -0.1,0.2 -0.4,0.4 -0.8,0.7 0,0.1 -0.2,0.2 -0.5,0.4 l -0.7,0.6 c -0.1,0.1 -0.9,0.7 -2.6,1.9 l -0.4,0.4 c -1,0.4 -2.1,1.1 -3.3,2.3 -0.8,0.5 -1.3,0.9 -1.6,1.3 -0.1,0 -0.3,0.1 -0.5,0.3 l -0.8,0.1 -1.5,0.8 c 0,0.8 0,1.2 0,1.3 0.1,0.7 0.3,1.7 0.7,3 0.1,0.4 0.3,0.6 0.4,0.8 0.5,0.6 1,1.2 1.5,1.5 0.1,0 0.2,0 0.4,0.1 0.2,0 0.3,0.1 0.4,0.1 l 0.8,0.1 c 0.1,-0.1 0.3,-0.1 0.5,-0.1 l 1.4,-0.3 c 1.3,-0.6 3.3,-1.4 6,-2.6 l 0.7,-0.3 c 0.4,-0.2 0.6,-0.4 0.7,-0.4 l 1.5,-1 0.2,-0.5 0.3,-0.4 0.6,0.3 c 0.8,0.1 0.9,0.5 0.8,1.2 m -9.8,-10.7 1.4,-0.8 c 0.8,-0.6 1.2,-1.2 1.4,-1.6 l 0.9,-1.2 0.4,-0.2 c 0.1,-0.4 0.2,-0.7 0.2,-1 0,-0.2 0,-0.4 -0.1,-0.5 l -0.6,-0.3 c -0.2,0 -0.4,0 -0.7,0 l -1.1,0.4 -1.5,0.6 c -0.4,0.3 -1.4,1.3 -3.2,3 -0.2,0.2 -0.5,0.6 -0.7,1 -0.2,0.3 -0.3,0.6 -0.5,0.9 l -0.6,0.7 -0.7,1.1 -0.4,0.7 -0.2,0.9 c 0.2,0 0.5,-0.2 0.9,-0.5 l 0.4,-0.2 v 0 l 2.9,-1.9 c 1.3,-0.6 1.8,-1 1.8,-1.1"
   id="path72" />
</g>
<g
   id="g78"
   transform="matrix(0.14279234,0,0,0.1305558,-11.976173,-41.289456)">
	<path
   class="st3"
   d="m 662,586.4 c 0,0 0.1,-0.2 0.1,-0.6 0,-0.4 0.1,-0.6 0.1,-0.7 l 0.4,-1.8 0.5,-0.9 0.3,-2.7 c 0,-0.1 0,-0.3 0,-0.6 l 0.1,-0.4 v -0.3 l 0.6,-4.3 0.7,-3.2 c -0.1,-0.2 -0.2,-0.3 -0.3,-0.3 -0.7,-0.3 -1.7,-0.2 -2.7,0.5 l -3.6,1 c -0.1,0.2 -0.2,0.3 -0.3,0.4 v 0 c -0.1,0.1 -0.2,0.2 -0.5,0.2 -0.1,0 -0.2,0 -0.5,0.1 l -0.7,0.4 c 0,0 -0.1,0.1 -0.2,0.1 l -0.3,0.2 c 0,0 -0.2,0.1 -0.4,0.3 l -2.5,0.7 v 0.2 l 0.1,-0.1 v -0.1 c -0.7,-0.6 -1,-1.1 -1,-1.4 -0.1,-0.2 -0.2,-0.3 -0.2,-0.4 v -0.5 l 0.7,-1.3 c 0.2,-0.1 0.3,-0.2 0.4,-0.2 l 1.8,-0.9 2.4,-0.6 h 0.2 l 0.3,-0.1 c 0.2,0 0.4,-0.1 0.5,-0.1 l 1.3,-0.3 c 0.2,-0.4 0.5,-0.5 0.9,-0.4 h 0.4 l 0.4,-0.3 1.4,-0.2 c 0.4,-0.1 0.9,-0.3 1.4,-0.5 h 0.6 0.5 l 1.1,-0.3 2.7,-9.4 0.9,-2.6 c 0.1,-0.2 0.2,-0.3 0.3,-0.4 0.1,-1.1 0.4,-2.4 1,-4.2 v -0.2 c 0.1,-0.1 0.1,-0.6 0.3,-1.5 l 0.2,-1.2 -0.1,-0.9 c 0.3,-0.5 0.6,-0.7 0.9,-0.8 l 0.5,-0.4 0.7,-0.1 2.3,1.5 0.1,0.3 0.4,0.4 c 0.1,0.9 0.1,1.3 0,1.4 l -0.4,0.8 -0.8,1.6 c -0.2,0.3 -0.3,0.6 -0.4,1 l -0.3,0.8 -0.3,0.9 c -0.2,0.5 -0.3,0.8 -0.3,0.9 -0.3,0.5 -0.6,0.9 -0.6,1.1 0,0.4 -0.2,1 -0.6,1.9 -0.4,0.9 -0.5,1.5 -0.5,1.9 l -0.7,1.3 -0.6,2.2 -0.2,1.4 c -0.1,0.2 -0.2,0.5 -0.3,0.9 l -0.2,0.5 c 0,0 0,0.1 0,0.2 l -0.1,0.2 c -0.1,0.1 0.1,0.2 0.7,0.3 h 1.3 c 0.2,0 0.6,0 1.2,0.1 h 1 c 0.4,0 0.6,0 0.7,0.1 h 2.1 0.7 c 0.3,0.1 0.6,0.1 0.9,0.1 h 0.4 c -0.1,0 0.1,0 0.8,0.1 0.8,0.1 1.2,0.2 1,0.3 l 1.2,0.1 1.1,0.3 0.1,0.3 -0.2,0.3 -0.6,0.5 c -0.1,0.1 -0.8,0.1 -2.2,0.1 -0.3,0 -0.4,0 -0.6,0 h -1 c -0.1,0 -0.3,0 -0.7,0 h -0.1 -0.2 -0.3 c 0,0.1 0,0.1 0,0.1 l -0.1,-0.1 -1.7,0.4 -6.3,0.8 c -0.1,0.1 -0.2,0.5 -0.2,1 0.1,0 0.1,0.2 0,0.4 v 0.4 c -0.3,0.4 -0.4,0.8 -0.4,1.2 -0.1,0.1 -0.1,0.3 -0.1,0.6 l -0.1,0.4 v 0.5 c 0,0.7 -0.1,0.9 -0.1,0.7 0,0.3 0,0.4 -0.1,0.4 l -0.6,2.1 -0.2,1.8 c 0,0.1 0,0.2 0,0.5 l -0.3,1.3 c -0.2,1.2 -0.3,1.9 -0.2,2 0,0 0,0.1 0.1,0 h -0.1 l -0.2,1.7 c 0,0.3 -0.1,0.6 -0.2,1 l -0.2,1.4 0.1,2.2 0.2,0.4 -0.3,0.4 c 0,0.1 0,0.2 0,0.3 0,0.1 -0.1,0.2 -0.3,0.4 l -3,0.7 c -0.1,-0.1 -0.3,-0.3 -0.4,-0.4 0.1,-0.1 0.1,-0.2 0.1,-0.3 0,-0.1 0,-0.2 0,-0.2 l -0.3,-1.7 c -0.7,-1.3 -0.5,-2.2 -0.3,-3.1"
   id="path76" />
</g>
<g
   id="g82"
   transform="matrix(0.14279234,0,0,0.1305558,-11.976173,-41.289456)">
	<path
   class="st3"
   d="m 682.7,586.3 c 0.1,0 0.1,-0.2 0.1,-0.6 0.1,-0.4 0.1,-0.6 0.2,-0.7 l 0.3,-1.9 0.5,-0.9 0.3,-2.6 c 0,-0.2 0,-0.4 0,-0.6 v -0.4 -0.3 l 0.6,-4.3 0.7,-3.2 c -0.1,-0.2 -0.2,-0.3 -0.3,-0.3 -0.7,-0.3 -1.6,-0.2 -2.7,0.5 l -3.6,1 c -0.2,0.2 -0.2,0.3 -0.3,0.3 v 0.1 c 0,0.1 -0.2,0.2 -0.5,0.2 -0.1,0 -0.3,0 -0.5,0.1 l -0.7,0.4 c 0,0.1 -0.1,0.1 -0.1,0.1 l -0.4,0.2 c 0,0.1 -0.2,0.2 -0.4,0.3 l -2.4,0.7 v 0.2 l 0.1,-0.1 v -0.1 c -0.7,-0.6 -1,-1 -1,-1.4 0,-0.2 -0.1,-0.3 -0.2,-0.4 V 572 l 0.6,-1.2 c 0.2,-0.2 0.4,-0.2 0.4,-0.2 l 1.8,-0.9 2.4,-0.6 h 0.2 l 0.3,-0.1 c 0.2,0 0.4,0 0.5,-0.1 l 1.2,-0.3 c 0.3,-0.3 0.6,-0.5 0.9,-0.3 h 0.4 l 0.4,-0.3 1.4,-0.2 c 0.4,-0.2 0.9,-0.3 1.4,-0.5 l 0.6,-0.1 h 0.5 l 1,-0.3 2.8,-9.5 0.9,-2.6 c 0.1,-0.2 0.2,-0.3 0.3,-0.4 0,-1 0.4,-2.5 1,-4.2 V 550 c 0,-0.1 0.1,-0.6 0.3,-1.5 l 0.2,-1.2 -0.1,-0.9 c 0.3,-0.5 0.5,-0.8 0.9,-0.8 l 0.5,-0.4 0.7,-0.1 2.3,1.5 0.1,0.3 0.4,0.4 c 0,0.9 0,1.3 -0.1,1.4 l -0.4,0.8 -0.9,1.6 c -0.2,0.3 -0.3,0.6 -0.4,1 l -0.3,0.9 -0.3,0.9 c -0.2,0.6 -0.3,0.8 -0.3,0.9 -0.4,0.5 -0.6,0.9 -0.7,1 0,0.4 -0.2,1 -0.6,1.9 -0.3,0.9 -0.5,1.5 -0.5,1.9 l -0.6,1.3 -0.6,2.1 -0.3,1.3 c -0.1,0.2 -0.2,0.6 -0.2,0.9 l -0.2,0.5 c 0,0.1 0,0.2 0,0.2 l -0.1,0.1 c -0.1,0.1 0.2,0.2 0.7,0.4 h 1.3 c 0.2,0 0.6,0 1.2,0.1 0.1,0 0.4,0 1,0 0.4,0 0.6,0 0.7,0.1 l 2.1,0.1 h 0.7 c 0.3,0.1 0.6,0.1 0.9,0.1 h 0.4 c -0.1,0 0.2,0 0.8,0.1 0.9,0.1 1.2,0.2 1,0.2 l 1.2,0.2 1.1,0.2 0.1,0.4 -0.2,0.3 -0.7,0.5 c -0.1,0.1 -0.8,0.1 -2.3,0.1 -0.2,0 -0.4,0 -0.6,0 h -1 c 0,0 -0.3,0 -0.7,-0.1 h -0.1 -0.2 -0.3 v 0.1 -0.1 l -1.7,0.4 -6.3,0.8 c -0.1,0.1 -0.2,0.5 -0.2,1 0,0.1 0,0.2 0,0.4 v 0.4 c -0.3,0.4 -0.4,0.8 -0.4,1.2 0,0.1 -0.1,0.3 -0.1,0.6 l -0.1,0.4 -0.1,0.5 c 0,0.7 -0.1,0.9 0,0.7 0,0.3 0,0.5 -0.1,0.5 l -0.7,2.1 -0.1,1.8 c 0,0.1 0,0.3 -0.1,0.6 l -0.2,1.3 c -0.2,1.2 -0.3,1.8 -0.2,1.9 0,0.1 0,0.1 0,0.1 v -0.1 l -0.2,1.7 c 0,0.4 -0.1,0.7 -0.2,1.1 l -0.3,1.4 0.1,2.1 0.2,0.4 -0.3,0.4 c 0,0.1 0,0.2 0,0.3 0,0.1 -0.1,0.2 -0.2,0.4 l -3.1,0.8 c -0.1,-0.1 -0.3,-0.3 -0.4,-0.4 0.1,-0.1 0.1,-0.2 0.1,-0.3 0,-0.1 0,-0.2 0,-0.2 l -0.3,-1.7 c -0.1,-1.2 0.1,-2.1 0.3,-3"
   id="path80" />
</g>
<g
   id="g86"
   transform="matrix(0.14279234,0,0,0.1305558,-11.976173,-41.289456)">
	<path
   class="st3"
   d="m 716.6,584.1 -0.2,0.5 c -0.1,0.2 -0.2,0.4 -0.4,0.5 l -0.6,0.4 -0.5,0.3 c -0.5,0.3 -1.7,1.1 -3.3,2.4 l -1.5,0.7 -2.1,0.8 c -0.1,0.1 -0.6,0.3 -1.6,0.7 -0.2,0 -0.7,0.2 -1.4,0.4 l -2.8,0.1 -2.5,-1.1 c -0.1,-0.1 -0.2,-0.2 -0.3,-0.3 l -0.3,-0.2 -1.3,-1.2 c -0.4,-0.6 -0.6,-1 -0.6,-1.2 0,-0.1 -0.2,-0.4 -0.5,-0.8 l -0.3,-2.2 0.3,-3.4 V 580 l 0.3,-0.9 0.6,-1.7 2.1,-4 0.7,-1.6 c 0.2,-0.3 0.5,-0.5 0.8,-0.9 l 0.8,-0.8 c 0.2,-0.1 0.5,-0.4 0.9,-0.9 0,-0.2 0.3,-0.4 0.8,-0.9 0.1,0 0.3,-0.2 0.5,-0.5 0,-0.1 0,-0.1 0.1,-0.2 l 2.1,-1.2 1.5,-0.7 c 0.1,0 0.3,-0.1 0.6,-0.2 1,-0.2 1.8,-0.3 2.3,-0.5 1.8,0 3.1,0.4 3.9,1.4 0,0.2 0.2,0.5 0.6,1.1 l -0.2,1.3 -0.2,0.7 -0.8,1.1 -0.7,1.1 -0.8,0.7 c -0.1,0.2 -0.3,0.4 -0.7,0.7 -0.1,0.1 -0.2,0.2 -0.5,0.4 l -0.7,0.5 c -0.1,0 -0.9,0.7 -2.6,1.9 l -0.4,0.4 c -1,0.4 -2.1,1.2 -3.3,2.3 -0.8,0.4 -1.3,0.9 -1.6,1.3 -0.1,0 -0.3,0.1 -0.5,0.3 l -0.7,0.1 -1.5,0.8 c 0,0.8 0,1.2 0,1.3 0,0.7 0.3,1.7 0.7,3 0.1,0.4 0.3,0.7 0.3,0.8 0.5,0.7 1.1,1.2 1.5,1.5 0.1,0 0.3,0 0.4,0.1 0.2,0.1 0.4,0.1 0.4,0.1 l 0.8,0.1 c 0.2,0 0.3,0 0.5,0 l 1.4,-0.4 c 1.3,-0.5 3.3,-1.4 6,-2.6 l 0.7,-0.4 c 0.4,-0.2 0.6,-0.3 0.7,-0.4 l 1.5,-1 0.2,-0.5 0.3,-0.4 0.7,0.3 c 0.3,0.4 0.4,0.8 0.4,1.5 m -9.9,-10.7 1.5,-0.8 c 0.8,-0.7 1.2,-1.2 1.4,-1.6 l 0.9,-1.1 0.4,-0.2 c 0.2,-0.4 0.2,-0.7 0.2,-1 0,-0.2 0,-0.3 -0.1,-0.4 l -0.6,-0.3 c -0.2,0 -0.4,0 -0.7,-0.1 l -1.2,0.4 -1.4,0.6 c -0.4,0.3 -1.5,1.3 -3.2,3 -0.2,0.2 -0.4,0.5 -0.7,1 -0.2,0.3 -0.3,0.6 -0.5,0.9 l -0.6,0.7 -0.7,1.1 -0.4,0.7 -0.2,0.8 c 0.2,0 0.6,-0.2 0.9,-0.5 l 0.4,-0.2 v 0 l 2.9,-1.9 c 1.2,-0.6 1.7,-1 1.7,-1.1"
   id="path84" />
</g>
<g
   id="g90"
   transform="matrix(0.14279234,0,0,0.1305558,-11.976173,-41.289456)">
	<path
   class="st3"
   d="m 725.9,587.5 -0.4,1.2 -0.3,0.8 c 0,0.1 0,0.1 0,0.2 l -0.1,0.1 c -0.2,0.1 -0.3,0.1 -0.4,0.2 -0.1,0.3 -0.1,0.6 -0.1,0.7 -0.2,0.1 -0.5,0.3 -1.1,0.3 -0.6,0.1 -1,0.1 -1.3,0.1 l -0.4,-0.2 -0.2,-0.4 c -0.1,-0.3 -0.1,-0.6 -0.1,-0.7 0,-0.5 0,-0.8 -0.2,-1 l 0.1,-0.5 c 0,-1.8 -0.2,-2.9 -0.5,-3.3 l -0.4,-4.8 -0.1,-2.2 -0.5,-2.3 c -0.7,-1.5 -1.1,-2.5 -1.3,-3 l -0.3,-0.5 -0.2,-0.5 v -0.4 c 0,-0.3 0,-0.5 0,-0.7 0.1,-0.3 0.1,-0.5 0.1,-0.6 0.2,-0.5 0.5,-1 0.7,-1.3 l 1.2,-0.9 2.8,0.7 c 0,0.2 0.2,0.3 0.3,0.5 0,0.4 0,0.9 0.1,1.7 0.1,0.7 -0.1,1.2 -0.3,1.5 0,0.6 0.1,1.1 0.2,1.4 l -0.1,2 v 1.5 l 0.9,3.7 1.3,-1.5 c 1.1,-2 1.9,-3.4 2.3,-4.1 l 2.5,-4.4 c 0.2,-0.2 0.3,-0.3 0.4,-0.4 0.5,-0.9 0.9,-1.4 1.1,-1.6 l 0.8,-1 0.6,-0.6 0.4,-0.5 1.4,-1.2 c 0.6,-0.4 0.9,-0.7 1.2,-0.8 1.8,-0.9 3.1,-1.4 4,-1.8 h 0.9 c 0.2,-0.1 0.3,-0.1 0.4,-0.2 1.8,0.2 2.9,0.5 3.1,0.8 0,0.2 0,0.3 -0.1,0.4 l -0.6,0.7 h -0.2 l -0.8,0.5 c -0.1,0 -0.4,0 -0.9,0 -0.3,0 -0.8,0.2 -1.4,0.5 -0.6,0.4 -1,0.5 -1.2,0.6 -0.9,0.3 -1.7,0.8 -2.3,1.5 -0.1,0.1 -0.2,0.1 -0.3,0.1 l -1.9,2.1 c -0.5,0.6 -0.8,0.9 -0.8,1 l -1.3,1.6 c -0.1,0.2 -0.3,0.3 -0.3,0.5 l -0.5,0.6 -0.2,0.6 c -0.3,0.8 -1,1.9 -2,3.4 -0.9,1.5 -1.6,2.7 -1.9,3.5 0,0 -0.1,0.2 -0.1,0.4 -0.1,0.3 -0.1,0.4 -0.1,0.5 l -1.4,3 c 0.1,0.2 0.2,0.3 0.2,0.4 z"
   id="path88" />
</g>
</svg>
