<?xml version="1.0" encoding="UTF-8" standalone="no"?>
<!-- Created with Inkscape (http://www.inkscape.org/) -->

<svg
   width="120mm"
   height="45mm"
   viewBox="0 0 120 45"
   version="1.1"
   id="svg5"
   inkscape:version="1.1.1 (3bf5ae0d25, 2021-09-20)"
   sodipodi:docname="rogers.svg"
   xmlns:inkscape="http://www.inkscape.org/namespaces/inkscape"
   xmlns:sodipodi="http://sodipodi.sourceforge.net/DTD/sodipodi-0.dtd"
   xmlns="http://www.w3.org/2000/svg"
   xmlns:svg="http://www.w3.org/2000/svg">
  <sodipodi:namedview
     id="namedview7"
     pagecolor="#ffffff"
     bordercolor="#666666"
     borderopacity="1.0"
     inkscape:pageshadow="2"
     inkscape:pageopacity="0.0"
     inkscape:pagecheckerboard="0"
     inkscape:document-units="mm"
     showgrid="false"
     inkscape:zoom="0.61647026"
     inkscape:cx="193.84552"
     inkscape:cy="42.986664"
     inkscape:window-width="1600"
     inkscape:window-height="877"
     inkscape:window-x="-8"
     inkscape:window-y="-8"
     inkscape:window-maximized="1"
     inkscape:current-layer="layer1" />
  <defs
     id="defs2" />
  <g
     inkscape:label="Layer 1"
     inkscape:groupmode="layer"
     id="layer1">
    <g
       transform="matrix(0.26457355,0,0,0.26457355,-31.340421,9.5933175)"
       id="layer1-8">
      <path
         id="path3392"
         d="m 526.34528,45.072566 c -1.38605,-0.74003 -2.43681,-1.29608 -3.74516,-1.99524 -4.40751,-2.34685 -7.82967,-4.19899 -7.82967,-8.16083 0,-4.44839 4.21944,-6.3496 8.92951,-6.3496 6.31279,0 11.19457,2.10155 12.17584,2.46952 v -9.3956 c -0.78501,-0.24138 -5.11892,-1.68859 -13.13258,-1.68859 -12.28623,0 -18.8975,7.25318 -18.8975,15.52441 0,8.25078 6.70122,12.50292 12.27806,15.47125 1.27564,0.67871 2.81705,1.50052 4.03544,2.14651 4.62012,2.46134 8.01365,4.39524 8.01365,8.66782 0,4.86135 -4.69779,7.15914 -9.38741,7.15914 -8.00956,0 -12.87091,-2.92335 -13.6968,-3.37718 l -2.71074,8.30803 c 0.79319,0.47428 7.17957,3.73697 16.59152,3.73697 11.51758,0 20.12408,-6.74618 20.12408,-16.72644 0,-7.08555 -4.82046,-11.57074 -12.74824,-15.79017 m -55.80527,1.56184 h -6.68894 v -17.59323 h 6.68894 c 8.82729,0 10.37686,5.71996 10.37686,8.7128 0,3.49984 -1.77445,8.88043 -10.37686,8.88043 m 10.34825,6.95062 v -0.35571 c 2.29779,-0.86269 10.27464,-4.89405 10.27464,-15.41809 0,-7.50667 -4.8409,-17.1394 -20.36122,-17.1394 h -16.93497 v 56.2223 h 9.98436 v -21.89444 h 3.58569 c 5.17617,0 6.48862,1.88483 9.7186,7.68656 l 8.03001,14.20788 h 11.5094 l -9.29748,-16.39937 c -3.05825,-5.47873 -5.4092,-6.59082 -6.50903,-6.90973 m -232.1342,-6.95062 h -6.68482 v -17.59323 h 6.68482 c 8.83547,0 10.37278,5.71996 10.37278,8.7128 0,3.49984 -1.77037,8.88043 -10.37278,8.88043 m 10.35233,6.95062 v -0.35571 c 2.30189,-0.86269 10.27464,-4.89405 10.27464,-15.41809 0,-7.50667 -4.84498,-17.1394 -20.3653,-17.1394 h -16.93905 v 56.2223 h 9.99256 v -21.89444 h 3.5898 c 5.16795,0 6.48039,1.88483 9.71037,7.68656 l 8.0341,14.20788 h 11.50531 l -9.29746,-16.39937 c -3.05011,-5.47873 -5.40513,-6.59082 -6.50497,-6.90973 m 110.73148,1.09166 h 8.57378 v 12.59696 c -2.17922,1.02625 -4.48109,1.70496 -8.16083,1.70496 -11.88555,0 -17.7854,-7.94007 -17.7854,-20.06684 0,-11.95506 5.9857,-20.32442 18.14111,-20.32442 4.46065,0 8.98264,1.43509 12.73598,3.79422 l 2.81295,-8.62286 c -4.42387,-2.31005 -10.291,-3.7983 -16.30941,-3.7983 -17.16803,0 -28.09276,12.55608 -28.09276,29.63824 0,16.13361 9.66544,28.0028 27.74113,28.0028 7.69884,0 14.02389,-1.95843 19.0406,-4.52199 v -26.52682 h -16.04365 z m 45.13812,-2.26918 h 21.55098 v -8.36117 h -21.55098 v -15.01334 h 21.64094 l 2.73117,-8.36117 h -34.60997 v 56.2223 h 34.69175 v -8.36119 h -24.45389 z m -109.34545,16.5711 c -10.20923,0 -15.53258,-7.429 -15.53258,-20.15271 0,-12.80957 5.32335,-20.23855 15.53258,-20.23855 10.45863,0 15.52849,7.76834 15.52849,20.23855 0,12.72371 -5.40104,20.15271 -15.52849,20.15271 m 0,-49.0182 c -16.32168,0 -26.2447,11.78742 -26.2447,28.86549 0,17.2498 10.01297,28.77963 26.2447,28.77963 16.06818,0 26.24062,-11.52983 26.24062,-28.77963 0,-16.9922 -9.91893,-28.86549 -26.24062,-28.86549 m 252.13969,50.69042 -1.84396,4.79593 h -0.0261 l -1.8644,-4.79593 h -1.3615 v 6.2433 h 0.84634 v -5.22114 h 0.0229 l 2.05247,5.22114 h 0.5724 l 2.05657,-5.22114 h 0.0229 v 5.22114 h 0.87087 v -6.2433 h -1.35333 z m -10.98196,0.76867 h 2.00749 v 5.47463 h 0.86678 v -5.47463 h 2.00751 v -0.76867 h -4.88178 z M 191.49326,46.205106 c 2.40819,-3.14821 4.28076,-8.34891 4.28076,-13.70088 0,-10.90429 -10.20513,-21.07264 -27.11557,-21.07264 -10.38095,0 -18.62356,4.17446 -24.19632,8.93359 2.73118,-0.89132 6.61126,-1.7949 11.46443,-1.7949 12.9772,0 28.19496,10.23785 35.5667,27.63483 m -45.57559,5.15982 c -2.40818,3.14413 -4.28076,8.34891 -4.28076,13.69679 0,10.9043 10.20514,21.07263 27.11558,21.07263 10.38094,0 18.62356,-4.17446 24.19223,-8.92949 -2.7271,0.89132 -6.60718,1.7908 -11.46034,1.7908 -12.97721,0 -28.19497,-10.23376 -35.56671,-27.63073 m 20.20585,-25.36567 c -3.14413,-2.41226 -8.34892,-4.28485 -13.6968,-4.28485 -10.9002,0 -21.07263,10.20515 -21.07263,27.11967 0,10.38095 4.17446,18.61947 8.9295,24.18814 -0.89132,-2.723 -1.79081,-6.60717 -1.79081,-11.46034 0,-12.97312 10.23376,-28.19087 27.63074,-35.56262 m 32.79464,10.0048 c 0,12.97721 -10.23376,28.19497 -27.63483,35.5667 3.14413,2.4082 8.353,4.28485 13.70089,4.28485 10.90429,0 21.07263,-10.20513 21.07263,-27.11557 0,-10.38503 -4.17855,-18.62764 -8.9295,-24.19631 0.88723,2.723 1.79081,6.60717 1.79081,11.46033"
         fill="#ee2722" />
    </g>
  </g>
</svg>
