<?xml version="1.0" encoding="UTF-8" standalone="no"?>
<!-- Created with Inkscape (http://www.inkscape.org/) -->

<svg
   width="120mm"
   height="45mm"
   viewBox="0 0 120 45"
   version="1.1"
   id="svg5"
   inkscape:version="1.1.1 (3bf5ae0d25, 2021-09-20)"
   sodipodi:docname="xerox.svg"
   xmlns:inkscape="http://www.inkscape.org/namespaces/inkscape"
   xmlns:sodipodi="http://sodipodi.sourceforge.net/DTD/sodipodi-0.dtd"
   xmlns="http://www.w3.org/2000/svg"
   xmlns:svg="http://www.w3.org/2000/svg">
  <sodipodi:namedview
     id="namedview7"
     pagecolor="#ffffff"
     bordercolor="#666666"
     borderopacity="1.0"
     inkscape:pageshadow="2"
     inkscape:pageopacity="0.0"
     inkscape:pagecheckerboard="0"
     inkscape:document-units="mm"
     showgrid="false"
     inkscape:zoom="0.61647026"
     inkscape:cx="193.84552"
     inkscape:cy="42.986664"
     inkscape:window-width="1600"
     inkscape:window-height="877"
     inkscape:window-x="-8"
     inkscape:window-y="-8"
     inkscape:window-maximized="1"
     inkscape:current-layer="layer1" />
  <defs
     id="defs2" />
  <g
     inkscape:label="Layer 1"
     inkscape:groupmode="layer"
     id="layer1">
    <path
       id="path370"
       d="m 78.300656,12.878917 c -6.422267,0 -10.685006,4.230188 -10.685006,9.614898 0,5.693357 4.320509,9.607168 10.685006,9.607168 6.242798,0 10.663087,-4.089748 10.663087,-9.611635 0,-5.520801 -4.420912,-9.610431 -10.663087,-9.610431 z m -36.563577,0.01357 c -2.040146,0 -4.621676,0.622229 -6.521059,2.005423 -2.265747,1.65047 -4.019588,4.232861 -4.019588,7.706904 0,2.995558 1.096029,5.408128 3.073484,7.042267 1.93565,1.600391 4.673556,2.474002 8.068474,2.474002 2.732915,0 6.033678,-0.913416 7.449312,-1.688568 0.495441,-0.27109 0.650998,-0.387525 0.522532,-0.830625 l -0.884015,-2.21712 c -0.102651,-0.363627 -0.558007,-0.456762 -0.928058,-0.294 -0.621452,0.270541 -1.085594,0.483444 -1.71564,0.689208 -1.223851,0.400641 -2.490143,0.673916 -3.695555,0.673916 -2.538053,0 -3.98136,-0.610879 -5.086572,-1.738229 -0.701973,-0.715818 -1.11318,-1.623186 -1.241037,-2.671606 h 14.005688 c 0.509582,0 0.736551,-0.311916 0.736551,-0.839388 v -0.893858 c 0,-0.435483 -0.02223,-1.119102 -0.06403,-1.527909 -0.257555,-2.497478 -1.295177,-4.506735 -3.02614,-5.868154 -1.667658,-1.313517 -3.906396,-2.022263 -6.674347,-2.022263 z m 22.833999,0.01787 c -4.044058,0 -6.513884,0.821464 -8.098549,2.630883 -1.214022,1.38755 -1.433548,2.939562 -1.432159,6.260098 v 9.113498 c 0.05593,0.649413 0.350951,0.953141 1.036331,0.953141 h 3.199411 c 0.740084,0 1.042538,-0.341834 1.042538,-0.953141 V 21.6314 c 0,-2.091392 0.02891,-3.258482 0.859372,-4.04779 0.714269,-0.678805 1.672516,-1.122906 3.682552,-1.122906 0.398317,0 1.352974,0.09312 1.686146,0.129043 0.126014,0.01361 0.22862,0.02234 0.282708,0.02234 0.346685,0 0.467149,-0.111616 0.57841,-0.501915 l 0.480036,-2.089277 c 0.08851,-0.428402 0.01468,-0.761506 -0.467228,-0.862756 -0.732709,-0.153505 -1.899259,-0.247778 -2.849568,-0.247778 z M 11.50674,13.158653 c -0.347909,0 -0.598029,0.245548 -0.454812,0.660341 0.953388,2.758224 3.371494,6.033039 5.878811,8.721042 -3.195164,2.54919 -5.429564,5.939865 -6.550749,8.664337 -0.165357,0.400642 0.09103,0.662574 0.343051,0.662574 h 3.770449 c 0.542772,0 0.791653,-0.171031 1.040599,-0.659309 1.019158,-1.993953 2.532632,-4.294918 4.517476,-6.160952 1.819472,1.5514 3.411529,3.910606 4.431908,6.160952 0.285839,0.62219 0.616505,0.659309 1.043703,0.659309 h 4.110977 c 0.786809,0 0.856399,-0.377749 0.715012,-0.707078 -1.568071,-3.660213 -4.903959,-7.396247 -6.785528,-8.974317 1.722977,-1.628697 4.846189,-4.77439 6.210802,-8.366558 0.201004,-0.528563 -0.170325,-0.660341 -0.478291,-0.660341 h -3.442339 c -0.417369,0 -0.696321,0.129057 -1.004898,0.660341 -1.853896,3.096264 -3.522797,4.922049 -4.241367,5.580168 -1.132264,-1.190494 -2.621071,-3.332 -3.710298,-5.580168 -0.236663,-0.487737 -0.48686,-0.660341 -0.965703,-0.660341 z m 79.260538,0 c -0.346689,0 -0.597417,0.245548 -0.454815,0.660341 0.952765,2.758224 3.370888,6.033039 5.878813,8.721042 -3.194537,2.54919 -5.428977,5.939865 -6.550165,8.664337 -0.16536,0.400642 0.09283,0.662574 0.343632,0.662574 h 3.769866 c 0.542147,0 0.791099,-0.171031 1.039436,-0.659309 1.019768,-1.993953 2.532605,-4.294918 4.51806,-6.160952 1.820085,1.5514 3.412155,3.910606 4.431315,6.160952 0.2883,0.62219 0.61831,0.659309 1.04429,0.659309 h 4.11098 c 0.78619,0 0.85635,-0.377749 0.71559,-0.707078 -1.5693,-3.660213 -4.90525,-7.396247 -6.78437,-8.974317 1.72175,-1.628697 4.84564,-4.77439 6.20964,-8.366558 0.20162,-0.528563 -0.17029,-0.660341 -0.47887,-0.660341 h -3.44098 c -0.41798,0 -0.69768,0.129057 -1.00626,0.660341 -1.8533,3.096264 -3.52224,4.922049 -4.240195,5.580168 -1.13348,-1.190494 -2.622204,-3.332 -3.712044,-5.580168 -0.236036,-0.487737 -0.487512,-0.660341 -0.965122,-0.660341 z m -12.463517,3.24002 c 3.739153,0 5.148085,2.863878 5.148085,6.091876 0,3.229084 -1.408932,6.094945 -5.148085,6.094453 -3.740387,0 -5.181069,-2.865369 -5.181069,-6.094453 0,-3.227454 1.440682,-6.091876 5.181069,-6.091876 z m -36.39147,0.01632 c 2.797456,0 4.506416,1.68262 4.506416,4.1801 v 0.113236 h -9.667306 c 0.103886,-0.621106 0.304233,-1.211255 0.618965,-1.771392 0.861787,-1.539422 2.505467,-2.521944 4.541925,-2.521944 z"
       style="fill:#d40e2a;stroke-width:0.0934881" />
  </g>
</svg>
